<svg id="svg" version="1.1" width="400" height="483.37730870712403" viewBox="0 0 400 483.37730870712403" xmlns="http://www.w3.org/2000/svg" xmlns:xlink="http://www.w3.org/1999/xlink" ><g id="svgg"><path id="path0" d="M198.561 2.600 C 198.148 3.150,197.583 3.600,197.305 3.600 C 197.027 3.600,196.800 3.794,196.800 4.031 C 196.800 4.591,194.591 6.800,194.031 6.800 C 193.794 6.800,193.600 6.986,193.600 7.213 C 193.600 7.731,191.309 10.000,190.786 10.000 C 190.574 10.000,190.400 10.176,190.400 10.391 C 190.400 10.901,186.101 15.200,185.591 15.200 C 185.376 15.200,185.200 15.374,185.200 15.586 C 185.200 16.109,182.931 18.400,182.413 18.400 C 182.186 18.400,182.000 18.573,182.000 18.784 C 182.000 18.995,179.210 21.958,175.800 25.368 C 172.390 28.778,169.600 31.755,169.600 31.984 C 169.600 32.213,169.416 32.400,169.191 32.400 C 168.648 32.400,161.200 39.837,161.200 40.378 C 161.200 40.610,161.006 40.800,160.769 40.800 C 160.209 40.800,158.000 43.009,158.000 43.569 C 158.000 43.806,157.730 44.000,157.400 44.000 C 157.070 44.000,156.800 44.140,156.800 44.311 C 156.800 44.482,156.086 45.337,155.213 46.211 C 154.340 47.085,153.620 48.000,153.613 48.244 C 153.606 48.488,153.150 49.026,152.600 49.439 C 152.050 49.852,151.600 50.417,151.600 50.695 C 151.600 50.973,151.330 51.200,151.000 51.200 C 150.670 51.200,150.400 51.470,150.400 51.800 C 150.400 52.130,150.207 52.400,149.971 52.400 C 149.418 52.400,148.400 53.418,148.400 53.971 C 148.400 54.207,148.206 54.400,147.969 54.400 C 147.409 54.400,145.200 56.609,145.200 57.169 C 145.200 57.406,145.007 57.600,144.771 57.600 C 144.218 57.600,143.200 58.618,143.200 59.171 C 143.200 59.407,142.930 59.600,142.600 59.600 C 142.270 59.600,142.000 59.870,142.000 60.200 C 142.000 60.530,141.807 60.800,141.571 60.800 C 141.018 60.800,140.000 61.818,140.000 62.371 C 140.000 62.607,139.730 62.800,139.400 62.800 C 139.070 62.800,138.800 63.070,138.800 63.400 C 138.800 63.730,138.607 64.000,138.371 64.000 C 137.818 64.000,136.800 65.018,136.800 65.571 C 136.800 65.807,136.530 66.000,136.200 66.000 C 135.870 66.000,135.600 66.270,135.600 66.600 C 135.600 66.930,135.407 67.200,135.171 67.200 C 134.618 67.200,133.600 68.218,133.600 68.771 C 133.600 69.007,133.407 69.200,133.171 69.200 C 132.618 69.200,131.600 70.218,131.600 70.771 C 131.600 71.007,131.330 71.200,131.000 71.200 C 130.670 71.200,130.400 71.470,130.400 71.800 C 130.400 72.130,130.207 72.400,129.971 72.400 C 129.418 72.400,128.400 73.418,128.400 73.971 C 128.400 74.207,128.130 74.400,127.800 74.400 C 127.470 74.400,127.200 74.670,127.200 75.000 C 127.200 75.330,127.007 75.600,126.771 75.600 C 126.218 75.600,125.200 76.618,125.200 77.171 C 125.200 77.407,124.930 77.600,124.600 77.600 C 124.270 77.600,124.000 77.870,124.000 78.200 C 124.000 78.530,123.807 78.800,123.571 78.800 C 123.018 78.800,122.000 79.818,122.000 80.371 C 122.000 80.607,121.806 80.800,121.569 80.800 C 121.009 80.800,118.800 83.009,118.800 83.569 C 118.800 83.806,118.607 84.000,118.371 84.000 C 117.818 84.000,116.800 85.018,116.800 85.571 C 116.800 85.807,116.530 86.000,116.200 86.000 C 115.870 86.000,115.600 86.270,115.600 86.600 C 115.600 86.930,115.407 87.200,115.171 87.200 C 114.618 87.200,113.600 88.218,113.600 88.771 C 113.600 89.007,113.330 89.200,113.000 89.200 C 112.670 89.200,112.400 89.470,112.400 89.800 C 112.400 90.130,112.207 90.400,111.971 90.400 C 111.418 90.400,110.400 91.418,110.400 91.971 C 110.400 92.207,110.206 92.400,109.969 92.400 C 109.409 92.400,107.200 94.609,107.200 95.169 C 107.200 95.406,107.007 95.600,106.771 95.600 C 106.218 95.600,105.200 96.618,105.200 97.171 C 105.200 97.407,104.930 97.600,104.600 97.600 C 104.270 97.600,104.000 97.870,104.000 98.200 C 104.000 98.530,103.807 98.800,103.571 98.800 C 103.018 98.800,102.000 99.818,102.000 100.371 C 102.000 100.607,101.730 100.800,101.400 100.800 C 101.070 100.800,100.800 101.070,100.800 101.400 C 100.800 101.730,100.607 102.000,100.371 102.000 C 99.818 102.000,98.800 103.018,98.800 103.571 C 98.800 103.807,98.606 104.000,98.369 104.000 C 97.809 104.000,95.600 106.209,95.600 106.769 C 95.600 107.006,95.407 107.200,95.171 107.200 C 94.618 107.200,93.600 108.218,93.600 108.771 C 93.600 109.007,93.330 109.200,93.000 109.200 C 92.670 109.200,92.400 109.470,92.400 109.800 C 92.400 110.130,92.207 110.400,91.971 110.400 C 91.736 110.400,91.286 110.657,90.971 110.971 C 90.657 111.286,90.400 111.736,90.400 111.971 C 90.400 112.207,90.130 112.400,89.800 112.400 C 89.470 112.400,89.200 112.670,89.200 113.000 C 89.200 113.330,89.007 113.600,88.771 113.600 C 88.218 113.600,87.200 114.618,87.200 115.171 C 87.200 115.407,87.006 115.600,86.769 115.600 C 86.209 115.600,84.000 117.809,84.000 118.369 C 84.000 118.606,83.807 118.800,83.571 118.800 C 83.018 118.800,82.000 119.818,82.000 120.371 C 82.000 120.607,81.730 120.800,81.400 120.800 C 81.070 120.800,80.800 121.070,80.800 121.400 C 80.800 121.730,80.607 122.000,80.371 122.000 C 79.818 122.000,78.800 123.018,78.800 123.571 C 78.800 123.807,78.530 124.000,78.200 124.000 C 77.870 124.000,77.600 124.270,77.600 124.600 C 77.600 124.930,77.407 125.200,77.171 125.200 C 76.618 125.200,75.600 126.218,75.600 126.771 C 75.600 127.007,75.406 127.200,75.169 127.200 C 74.609 127.200,72.400 129.409,72.400 129.969 C 72.400 130.206,72.206 130.400,71.969 130.400 C 71.732 130.400,71.012 130.926,70.369 131.569 C 69.726 132.212,69.200 132.932,69.200 133.169 C 69.200 133.406,69.007 133.600,68.771 133.600 C 68.218 133.600,67.200 134.618,67.200 135.171 C 67.200 135.407,66.930 135.600,66.600 135.600 C 66.270 135.600,66.000 135.870,66.000 136.200 C 66.000 136.530,65.807 136.800,65.571 136.800 C 65.018 136.800,64.000 137.818,64.000 138.371 C 64.000 138.607,63.806 138.800,63.569 138.800 C 63.332 138.800,62.612 139.326,61.969 139.969 C 61.326 140.612,60.800 141.332,60.800 141.569 C 60.800 141.806,60.606 142.000,60.369 142.000 C 59.809 142.000,57.600 144.209,57.600 144.769 C 57.600 145.006,57.407 145.200,57.171 145.200 C 56.618 145.200,55.600 146.218,55.600 146.771 C 55.600 147.007,55.330 147.200,55.000 147.200 C 54.670 147.200,54.400 147.470,54.400 147.800 C 54.400 148.130,54.207 148.400,53.971 148.400 C 53.418 148.400,52.400 149.418,52.400 149.971 C 52.400 150.207,52.130 150.400,51.800 150.400 C 51.470 150.400,51.200 150.670,51.200 151.000 C 51.200 151.330,51.007 151.600,50.771 151.600 C 50.218 151.600,49.200 152.618,49.200 153.171 C 49.200 153.407,49.006 153.600,48.769 153.600 C 48.209 153.600,46.000 155.809,46.000 156.369 C 46.000 156.606,45.807 156.800,45.571 156.800 C 45.018 156.800,44.000 157.818,44.000 158.371 C 44.000 158.607,43.730 158.800,43.400 158.800 C 43.070 158.800,42.800 159.070,42.800 159.400 C 42.800 159.730,42.607 160.000,42.371 160.000 C 41.818 160.000,40.800 161.018,40.800 161.571 C 40.800 161.807,40.530 162.000,40.200 162.000 C 39.870 162.000,39.600 162.270,39.600 162.600 C 39.600 162.930,39.407 163.200,39.171 163.200 C 38.618 163.200,37.600 164.218,37.600 164.771 C 37.600 165.007,37.406 165.200,37.169 165.200 C 36.609 165.200,34.400 167.409,34.400 167.969 C 34.400 168.206,34.214 168.400,33.987 168.400 C 33.469 168.400,31.200 170.691,31.200 171.214 C 31.200 171.426,31.007 171.600,30.771 171.600 C 30.218 171.600,29.200 172.618,29.200 173.171 C 29.200 173.407,28.930 173.600,28.600 173.600 C 28.270 173.600,28.000 173.870,28.000 174.200 C 28.000 174.530,27.807 174.800,27.571 174.800 C 27.336 174.800,26.886 175.057,26.571 175.371 C 26.257 175.686,26.000 176.136,26.000 176.371 C 26.000 176.607,25.806 176.800,25.569 176.800 C 25.332 176.800,24.612 177.326,23.969 177.969 C 23.326 178.612,22.800 179.332,22.800 179.569 C 22.800 179.806,22.614 180.000,22.387 180.000 C 21.869 180.000,19.600 182.291,19.600 182.814 C 19.600 183.026,19.407 183.200,19.171 183.200 C 18.618 183.200,17.600 184.218,17.600 184.771 C 17.600 185.007,17.330 185.200,17.000 185.200 C 16.670 185.200,16.400 185.470,16.400 185.800 C 16.400 186.130,16.207 186.400,15.971 186.400 C 15.418 186.400,14.400 187.418,14.400 187.971 C 14.400 188.207,14.226 188.400,14.014 188.400 C 13.491 188.400,11.200 190.669,11.200 191.187 C 11.200 191.414,11.006 191.600,10.769 191.600 C 10.209 191.600,8.000 193.809,8.000 194.369 C 8.000 194.606,7.807 194.800,7.571 194.800 C 7.018 194.800,6.000 195.818,6.000 196.371 C 6.000 196.607,5.730 196.800,5.400 196.800 C 5.070 196.800,4.800 197.070,4.800 197.400 C 4.800 197.730,4.607 198.000,4.371 198.000 C 3.818 198.000,2.800 199.018,2.800 199.571 C 2.800 199.807,2.530 200.000,2.200 200.000 C 1.827 200.000,1.600 200.378,1.600 201.000 C 1.600 201.622,1.827 202.000,2.200 202.000 C 2.530 202.000,2.800 202.193,2.800 202.429 C 2.800 202.982,3.818 204.000,4.371 204.000 C 4.607 204.000,4.800 204.270,4.800 204.600 C 4.800 204.930,5.070 205.200,5.400 205.200 C 5.730 205.200,6.000 205.393,6.000 205.629 C 6.000 206.182,7.018 207.200,7.571 207.200 C 7.807 207.200,8.000 207.394,8.000 207.631 C 8.000 208.191,10.209 210.400,10.769 210.400 C 11.006 210.400,11.200 210.593,11.200 210.829 C 11.200 211.382,12.218 212.400,12.771 212.400 C 13.007 212.400,13.200 212.670,13.200 213.000 C 13.200 213.330,13.470 213.600,13.800 213.600 C 14.130 213.600,14.400 213.793,14.400 214.029 C 14.400 214.582,15.418 215.600,15.971 215.600 C 16.207 215.600,16.400 215.870,16.400 216.200 C 16.400 216.530,16.670 216.800,17.000 216.800 C 17.330 216.800,17.600 216.993,17.600 217.229 C 17.600 217.782,18.618 218.800,19.171 218.800 C 19.407 218.800,19.600 218.994,19.600 219.231 C 19.600 219.791,21.809 222.000,22.369 222.000 C 22.606 222.000,22.800 222.193,22.800 222.429 C 22.800 222.982,23.818 224.000,24.371 224.000 C 24.607 224.000,24.800 224.270,24.800 224.600 C 24.800 224.930,25.070 225.200,25.400 225.200 C 25.730 225.200,26.000 225.393,26.000 225.629 C 26.000 226.182,27.018 227.200,27.571 227.200 C 27.807 227.200,28.000 227.470,28.000 227.800 C 28.000 228.130,28.270 228.400,28.600 228.400 C 28.930 228.400,29.200 228.593,29.200 228.829 C 29.200 229.382,30.218 230.400,30.771 230.400 C 31.007 230.400,31.200 230.594,31.200 230.831 C 31.200 231.068,31.726 231.788,32.369 232.431 C 33.012 233.074,33.732 233.600,33.969 233.600 C 34.206 233.600,34.400 233.793,34.400 234.029 C 34.400 234.582,35.418 235.600,35.971 235.600 C 36.207 235.600,36.400 235.870,36.400 236.200 C 36.400 236.530,36.670 236.800,37.000 236.800 C 37.330 236.800,37.600 236.993,37.600 237.229 C 37.600 237.782,38.618 238.800,39.171 238.800 C 39.407 238.800,39.600 239.070,39.600 239.400 C 39.600 239.730,39.870 240.000,40.200 240.000 C 40.530 240.000,40.800 240.193,40.800 240.429 C 40.800 240.967,41.811 242.000,42.338 242.000 C 42.555 242.000,42.808 242.225,42.900 242.500 C 43.343 243.828,50.171 237.181,122.444 165.075 C 164.960 122.656,200.055 87.785,200.431 87.583 C 200.995 87.281,214.663 100.811,278.458 164.824 C 350.487 237.099,355.877 242.416,356.923 242.220 C 358.113 241.998,359.200 241.143,359.200 240.429 C 359.200 240.193,359.470 240.000,359.800 240.000 C 360.130 240.000,360.400 239.730,360.400 239.400 C 360.400 239.070,360.593 238.800,360.829 238.800 C 361.382 238.800,362.400 237.782,362.400 237.229 C 362.400 236.993,362.670 236.800,363.000 236.800 C 363.330 236.800,363.600 236.530,363.600 236.200 C 363.600 235.870,363.793 235.600,364.029 235.600 C 364.582 235.600,365.600 234.582,365.600 234.029 C 365.600 233.793,365.794 233.600,366.031 233.600 C 366.268 233.600,366.988 233.074,367.631 232.431 C 368.274 231.788,368.800 231.068,368.800 230.831 C 368.800 230.594,368.993 230.400,369.229 230.400 C 369.782 230.400,370.800 229.382,370.800 228.829 C 370.800 228.593,371.070 228.400,371.400 228.400 C 371.730 228.400,372.000 228.130,372.000 227.800 C 372.000 227.470,372.193 227.200,372.429 227.200 C 372.982 227.200,374.000 226.182,374.000 225.629 C 374.000 225.393,374.270 225.200,374.600 225.200 C 374.930 225.200,375.200 224.930,375.200 224.600 C 375.200 224.270,375.393 224.000,375.629 224.000 C 376.182 224.000,377.200 222.982,377.200 222.429 C 377.200 222.193,377.394 222.000,377.631 222.000 C 377.868 222.000,378.588 221.474,379.231 220.831 C 379.874 220.188,380.400 219.468,380.400 219.231 C 380.400 218.994,380.593 218.800,380.829 218.800 C 381.064 218.800,381.514 218.543,381.829 218.229 C 382.143 217.914,382.400 217.464,382.400 217.229 C 382.400 216.993,382.670 216.800,383.000 216.800 C 383.330 216.800,383.600 216.530,383.600 216.200 C 383.600 215.870,383.793 215.600,384.029 215.600 C 384.264 215.600,384.714 215.343,385.029 215.029 C 385.343 214.714,385.600 214.264,385.600 214.029 C 385.600 213.793,385.870 213.600,386.200 213.600 C 386.530 213.600,386.800 213.330,386.800 213.000 C 386.800 212.670,386.993 212.400,387.229 212.400 C 387.464 212.400,387.914 212.143,388.229 211.829 C 388.543 211.514,388.800 211.064,388.800 210.829 C 388.800 210.593,388.994 210.400,389.231 210.400 C 389.468 210.400,390.188 209.874,390.831 209.231 C 391.474 208.588,392.000 207.868,392.000 207.631 C 392.000 207.394,392.193 207.200,392.429 207.200 C 392.664 207.200,393.114 206.943,393.429 206.629 C 393.743 206.314,394.000 205.864,394.000 205.629 C 394.000 205.393,394.270 205.200,394.600 205.200 C 394.930 205.200,395.200 204.930,395.200 204.600 C 395.200 204.270,395.393 204.000,395.629 204.000 C 396.182 204.000,397.200 202.982,397.200 202.429 C 397.200 202.193,397.470 202.000,397.800 202.000 C 398.130 202.000,398.400 201.730,398.400 201.400 C 398.400 201.070,398.670 200.800,399.000 200.800 C 399.330 200.800,399.600 200.480,399.600 200.089 C 399.600 199.357,398.298 198.000,397.595 198.000 C 397.378 198.000,397.200 197.806,397.200 197.569 C 397.200 197.009,394.991 194.800,394.431 194.800 C 394.194 194.800,394.000 194.610,394.000 194.378 C 394.000 193.837,386.552 186.400,386.009 186.400 C 385.784 186.400,385.600 186.206,385.600 185.969 C 385.600 185.732,385.074 185.012,384.431 184.369 C 383.788 183.726,383.068 183.200,382.831 183.200 C 382.594 183.200,382.400 183.006,382.400 182.769 C 382.400 182.532,381.874 181.812,381.231 181.169 C 380.588 180.526,379.868 180.000,379.631 180.000 C 379.394 180.000,379.200 179.824,379.200 179.609 C 379.200 179.074,374.957 174.800,374.426 174.800 C 374.192 174.800,374.000 174.606,374.000 174.369 C 374.000 174.132,373.474 173.412,372.831 172.769 C 372.188 172.126,371.468 171.600,371.231 171.600 C 370.994 171.600,370.800 171.406,370.800 171.169 C 370.800 170.609,368.591 168.400,368.031 168.400 C 367.794 168.400,367.600 168.207,367.600 167.971 C 367.600 167.418,366.582 166.400,366.029 166.400 C 365.793 166.400,365.600 166.226,365.600 166.014 C 365.600 165.491,363.331 163.200,362.813 163.200 C 362.586 163.200,362.400 163.034,362.400 162.831 C 362.400 162.628,361.846 161.908,361.169 161.231 C 360.492 160.554,359.772 160.000,359.569 160.000 C 359.366 160.000,359.200 159.730,359.200 159.400 C 359.200 159.070,359.051 158.800,358.869 158.800 C 358.687 158.800,357.150 157.456,355.453 155.813 C 353.756 154.170,351.834 152.511,351.184 152.127 C 350.533 151.742,350.000 151.196,350.000 150.914 C 350.000 150.631,349.730 150.400,349.400 150.400 C 349.070 150.400,348.800 150.130,348.800 149.800 C 348.800 149.470,348.607 149.200,348.371 149.200 C 348.136 149.200,347.686 148.943,347.371 148.629 C 347.057 148.314,346.800 147.864,346.800 147.629 C 346.800 147.393,346.530 147.200,346.200 147.200 C 345.870 147.200,345.600 146.930,345.600 146.600 C 345.600 146.270,345.407 146.000,345.171 146.000 C 344.936 146.000,344.486 145.743,344.171 145.429 C 343.857 145.114,343.600 144.664,343.600 144.429 C 343.600 144.193,343.330 144.000,343.000 144.000 C 342.670 144.000,342.400 143.807,342.400 143.571 C 342.400 143.336,342.143 142.886,341.829 142.571 C 341.514 142.257,341.064 142.000,340.829 142.000 C 340.593 142.000,340.400 141.730,340.400 141.400 C 340.400 141.070,340.130 140.800,339.800 140.800 C 339.470 140.800,339.200 140.607,339.200 140.371 C 339.200 139.818,338.182 138.800,337.629 138.800 C 337.393 138.800,337.200 138.530,337.200 138.200 C 337.200 137.870,337.007 137.600,336.771 137.600 C 336.536 137.600,336.086 137.343,335.771 137.029 C 335.457 136.714,335.200 136.264,335.200 136.029 C 335.200 135.793,334.930 135.600,334.600 135.600 C 334.270 135.600,334.000 135.330,334.000 135.000 C 334.000 134.670,333.807 134.400,333.571 134.400 C 333.336 134.400,332.886 134.143,332.571 133.829 C 332.257 133.514,332.000 133.064,332.000 132.829 C 332.000 132.593,331.730 132.400,331.400 132.400 C 331.070 132.400,330.800 132.207,330.800 131.971 C 330.800 131.736,330.543 131.286,330.229 130.971 C 329.914 130.657,329.464 130.400,329.229 130.400 C 328.993 130.400,328.800 130.130,328.800 129.800 C 328.800 129.470,328.530 129.200,328.200 129.200 C 327.870 129.200,327.600 129.007,327.600 128.771 C 327.600 128.536,327.343 128.086,327.029 127.771 C 326.714 127.457,326.264 127.200,326.029 127.200 C 325.793 127.200,325.600 126.930,325.600 126.600 C 325.600 126.270,325.407 126.000,325.171 126.000 C 324.936 126.000,324.486 125.743,324.171 125.429 C 323.857 125.114,323.600 124.664,323.600 124.429 C 323.600 124.193,323.330 124.000,323.000 124.000 C 322.670 124.000,322.400 123.730,322.400 123.400 C 322.400 123.070,322.207 122.800,321.971 122.800 C 321.418 122.800,320.400 121.782,320.400 121.229 C 320.400 120.993,320.130 120.800,319.800 120.800 C 319.470 120.800,319.200 120.530,319.200 120.200 C 319.200 119.870,319.007 119.600,318.771 119.600 C 318.536 119.600,318.086 119.343,317.771 119.029 C 317.457 118.714,317.200 118.264,317.200 118.029 C 317.200 117.793,316.930 117.600,316.600 117.600 C 316.270 117.600,316.000 117.407,316.000 117.171 C 316.000 116.936,315.743 116.486,315.429 116.171 C 315.114 115.857,314.664 115.600,314.429 115.600 C 314.193 115.600,314.000 115.330,314.000 115.000 C 314.000 114.670,313.807 114.400,313.571 114.400 C 313.336 114.400,312.886 114.143,312.571 113.829 C 312.257 113.514,312.000 113.064,312.000 112.829 C 312.000 112.593,311.730 112.400,311.400 112.400 C 311.070 112.400,310.800 112.130,310.800 111.800 C 310.800 111.470,310.607 111.200,310.371 111.200 C 309.818 111.200,308.800 110.182,308.800 109.629 C 308.800 109.393,308.530 109.200,308.200 109.200 C 307.870 109.200,307.600 108.930,307.600 108.600 C 307.600 108.270,307.407 108.000,307.171 108.000 C 306.936 108.000,306.486 107.743,306.171 107.429 C 305.857 107.114,305.600 106.664,305.600 106.429 C 305.600 106.193,305.330 106.000,305.000 106.000 C 304.670 106.000,304.400 105.807,304.400 105.571 C 304.400 105.336,304.143 104.886,303.829 104.571 C 303.514 104.257,303.064 104.000,302.829 104.000 C 302.593 104.000,302.400 103.730,302.400 103.400 C 302.400 103.070,302.207 102.800,301.971 102.800 C 301.418 102.800,300.400 101.782,300.400 101.229 C 300.400 100.993,300.130 100.800,299.800 100.800 C 299.470 100.800,299.200 100.530,299.200 100.200 C 299.200 99.870,299.007 99.600,298.771 99.600 C 298.218 99.600,297.200 98.582,297.200 98.029 C 297.200 97.793,296.930 97.600,296.600 97.600 C 296.270 97.600,296.000 97.330,296.000 97.000 C 296.000 96.670,295.807 96.400,295.571 96.400 C 295.018 96.400,294.000 95.382,294.000 94.829 C 294.000 94.593,293.730 94.400,293.400 94.400 C 293.070 94.400,292.800 94.207,292.800 93.971 C 292.800 93.418,291.782 92.400,291.229 92.400 C 290.993 92.400,290.800 92.130,290.800 91.800 C 290.800 91.470,290.607 91.200,290.371 91.200 C 289.818 91.200,288.800 90.182,288.800 89.629 C 288.800 89.393,288.530 89.200,288.200 89.200 C 287.870 89.200,287.600 88.930,287.600 88.600 C 287.600 88.270,287.407 88.000,287.171 88.000 C 286.618 88.000,285.600 86.982,285.600 86.429 C 285.600 86.193,285.330 86.000,285.000 86.000 C 284.670 86.000,284.400 85.730,284.400 85.400 C 284.400 85.070,284.207 84.800,283.971 84.800 C 283.418 84.800,282.400 83.782,282.400 83.229 C 282.400 82.993,282.130 82.800,281.800 82.800 C 281.470 82.800,281.200 82.560,281.200 82.268 C 281.200 81.975,280.750 81.494,280.200 81.200 C 279.650 80.906,279.200 80.425,279.200 80.132 C 279.200 79.840,279.007 79.600,278.771 79.600 C 278.218 79.600,277.200 78.582,277.200 78.029 C 277.200 77.793,276.930 77.600,276.600 77.600 C 276.270 77.600,276.000 77.330,276.000 77.000 C 276.000 76.670,275.807 76.400,275.571 76.400 C 275.018 76.400,274.000 75.382,274.000 74.829 C 274.000 74.593,273.730 74.400,273.400 74.400 C 273.070 74.400,272.800 74.130,272.800 73.800 C 272.800 73.470,272.607 73.200,272.371 73.200 C 271.818 73.200,270.800 72.182,270.800 71.629 C 270.800 71.393,270.530 71.200,270.200 71.200 C 269.870 71.200,269.600 70.930,269.600 70.600 C 269.600 70.270,269.407 70.000,269.171 70.000 C 268.618 70.000,267.600 68.982,267.600 68.429 C 267.600 68.193,267.407 68.000,267.171 68.000 C 266.618 68.000,265.600 66.982,265.600 66.429 C 265.600 66.193,265.330 66.000,265.000 66.000 C 264.670 66.000,264.400 65.730,264.400 65.400 C 264.400 65.070,264.207 64.800,263.971 64.800 C 263.418 64.800,262.400 63.782,262.400 63.229 C 262.400 62.993,262.130 62.800,261.800 62.800 C 261.470 62.800,261.200 62.530,261.200 62.200 C 261.200 61.870,261.007 61.600,260.771 61.600 C 260.218 61.600,259.200 60.582,259.200 60.029 C 259.200 59.793,258.930 59.600,258.600 59.600 C 258.270 59.600,258.000 59.330,258.000 59.000 C 258.000 58.670,257.807 58.400,257.571 58.400 C 257.018 58.400,256.000 57.382,256.000 56.829 C 256.000 56.593,255.760 56.400,255.468 56.400 C 255.175 56.400,254.694 55.950,254.400 55.400 C 254.106 54.850,253.625 54.400,253.332 54.400 C 253.040 54.400,252.800 54.130,252.800 53.800 C 252.800 53.470,252.607 53.200,252.371 53.200 C 251.818 53.200,250.800 52.182,250.800 51.629 C 250.800 51.393,250.530 51.200,250.200 51.200 C 249.870 51.200,249.600 50.930,249.600 50.600 C 249.600 50.270,249.407 50.000,249.171 50.000 C 248.618 50.000,247.600 48.982,247.600 48.429 C 247.600 48.193,247.330 48.000,247.000 48.000 C 246.670 48.000,246.400 47.730,246.400 47.400 C 246.400 47.070,246.207 46.800,245.971 46.800 C 245.418 46.800,244.400 45.782,244.400 45.229 C 244.400 44.993,244.234 44.800,244.031 44.800 C 243.550 44.800,241.200 42.450,241.200 41.969 C 241.200 41.766,241.007 41.600,240.771 41.600 C 240.218 41.600,239.200 40.582,239.200 40.029 C 239.200 39.793,238.930 39.600,238.600 39.600 C 238.270 39.600,238.000 39.330,238.000 39.000 C 238.000 38.670,237.807 38.400,237.571 38.400 C 237.018 38.400,236.000 37.382,236.000 36.829 C 236.000 36.593,235.730 36.400,235.400 36.400 C 235.070 36.400,234.800 36.130,234.800 35.800 C 234.800 35.470,234.607 35.200,234.371 35.200 C 233.818 35.200,232.800 34.182,232.800 33.629 C 232.800 33.393,232.626 33.200,232.414 33.200 C 231.891 33.200,229.600 30.931,229.600 30.413 C 229.600 30.186,229.414 30.000,229.187 30.000 C 228.669 30.000,226.400 27.709,226.400 27.186 C 226.400 26.974,226.207 26.800,225.971 26.800 C 225.418 26.800,224.400 25.782,224.400 25.229 C 224.400 24.993,224.130 24.800,223.800 24.800 C 223.470 24.800,223.200 24.530,223.200 24.200 C 223.200 23.870,223.007 23.600,222.771 23.600 C 222.218 23.600,221.200 22.582,221.200 22.029 C 221.200 21.793,221.026 21.600,220.814 21.600 C 220.291 21.600,218.000 19.331,218.000 18.813 C 218.000 18.586,217.814 18.400,217.587 18.400 C 217.069 18.400,214.800 16.109,214.800 15.586 C 214.800 15.374,214.607 15.200,214.371 15.200 C 213.818 15.200,212.800 14.182,212.800 13.629 C 212.800 13.393,212.530 13.200,212.200 13.200 C 211.870 13.200,211.600 12.930,211.600 12.600 C 211.600 12.270,211.407 12.000,211.171 12.000 C 210.618 12.000,209.600 10.982,209.600 10.429 C 209.600 10.193,209.426 10.000,209.214 10.000 C 208.691 10.000,206.400 7.731,206.400 7.213 C 206.400 6.986,206.206 6.800,205.969 6.800 C 205.409 6.800,203.200 4.591,203.200 4.031 C 203.200 3.794,202.973 3.600,202.695 3.600 C 202.417 3.600,201.852 3.150,201.439 2.600 C 201.026 2.050,200.378 1.600,200.000 1.600 C 199.622 1.600,198.974 2.050,198.561 2.600 " stroke="none" fill="#000000" fill-rule="evenodd"></path><path id="path1" d="M126.229 202.629 C 125.587 203.270,125.218 366.732,125.852 369.100 L 126.093 370.000 137.204 370.000 C 146.966 370.000,148.344 369.923,148.557 369.367 C 148.691 369.019,148.800 351.587,148.800 330.629 C 148.800 294.221,148.833 292.494,149.531 291.862 C 150.184 291.271,151.855 291.200,165.099 291.200 C 173.258 291.200,180.219 291.091,180.567 290.957 C 181.387 290.643,181.529 276.089,180.720 275.280 C 180.364 274.924,176.385 274.800,165.294 274.800 C 155.756 274.800,150.067 274.650,149.574 274.386 C 148.567 273.847,148.336 220.483,149.336 219.653 C 149.711 219.342,155.906 219.176,169.836 219.104 L 189.800 219.000 189.908 211.137 C 190.001 204.382,189.927 203.184,189.380 202.637 C 188.414 201.671,127.194 201.663,126.229 202.629 M207.200 202.800 C 206.277 203.723,205.897 367.513,206.814 369.226 C 207.464 370.441,247.494 370.413,254.660 369.193 C 260.115 368.265,266.026 366.853,266.580 366.347 C 266.789 366.156,267.258 366.000,267.623 366.000 C 268.828 366.000,275.119 362.477,276.756 360.886 C 277.062 360.588,277.729 360.072,278.239 359.737 C 280.388 358.330,283.698 353.630,286.225 348.400 C 287.235 346.310,288.228 344.287,288.431 343.905 C 288.634 343.523,288.806 342.803,288.814 342.305 C 288.822 341.807,289.086 340.950,289.400 340.400 C 289.714 339.850,289.978 338.827,289.986 338.126 C 289.994 337.425,290.204 336.345,290.452 335.726 C 290.926 334.546,291.396 331.176,291.975 324.800 C 292.430 319.786,292.432 248.378,291.977 244.000 C 291.180 236.334,290.920 234.559,290.471 233.726 C 290.212 233.246,289.994 232.346,289.986 231.726 C 289.978 231.107,289.714 230.150,289.400 229.600 C 289.086 229.050,288.822 228.259,288.814 227.842 C 288.796 226.884,286.263 221.550,284.748 219.280 C 284.117 218.334,283.600 217.460,283.600 217.338 C 283.600 216.177,273.913 208.000,272.537 208.000 C 272.242 208.000,272.000 207.820,272.000 207.600 C 272.000 207.380,271.712 207.200,271.360 207.200 C 271.009 207.200,270.154 206.960,269.460 206.666 C 267.261 205.734,265.448 205.133,263.800 204.791 C 262.920 204.608,261.711 204.273,261.114 204.045 C 255.800 202.018,209.061 200.939,207.200 202.800 M247.400 219.807 C 248.940 220.133,250.967 220.400,251.905 220.400 C 252.843 220.400,253.923 220.554,254.305 220.742 C 254.687 220.930,256.229 221.670,257.731 222.388 C 261.962 224.408,266.400 229.582,266.400 232.494 C 266.400 232.794,266.551 233.211,266.736 233.420 C 268.619 235.553,269.002 244.511,268.973 285.800 C 268.942 329.053,268.794 332.231,266.479 339.400 C 265.035 343.871,261.151 348.398,257.091 350.342 C 252.596 352.493,251.818 352.600,240.600 352.600 L 230.200 352.600 230.093 286.600 L 229.987 220.600 230.838 219.900 C 231.973 218.966,243.132 218.903,247.400 219.807 " stroke="none" fill="#ffffff" fill-rule="evenodd"></path><path id="path2" d="M193.985 93.800 C 190.195 97.540,155.160 132.460,116.129 171.400 C 62.642 224.762,44.808 242.326,43.718 242.711 C 42.902 242.999,41.172 244.348,39.746 245.811 C 38.356 247.235,37.035 248.400,36.810 248.400 C 36.584 248.400,36.400 248.574,36.400 248.786 C 36.400 249.309,34.131 251.600,33.613 251.600 C 33.386 251.600,33.200 251.786,33.200 252.013 C 33.200 252.531,30.909 254.800,30.386 254.800 C 30.174 254.800,30.000 254.976,30.000 255.191 C 30.000 255.701,25.701 260.000,25.191 260.000 C 24.976 260.000,24.800 260.166,24.800 260.369 C 24.800 260.850,22.450 263.200,21.969 263.200 C 21.766 263.200,21.600 263.386,21.600 263.613 C 21.600 264.131,19.309 266.400,18.786 266.400 C 18.574 266.400,18.400 266.593,18.400 266.829 C 18.400 267.382,17.382 268.400,16.829 268.400 C 16.593 268.400,16.400 268.670,16.400 269.000 C 16.400 269.330,16.130 269.600,15.800 269.600 C 15.470 269.600,15.200 269.793,15.200 270.029 C 15.200 270.582,14.182 271.600,13.629 271.600 C 13.393 271.600,13.200 271.774,13.200 271.986 C 13.200 272.509,10.931 274.800,10.413 274.800 C 10.186 274.800,10.000 274.974,10.000 275.186 C 10.000 275.709,7.731 278.000,7.213 278.000 C 6.986 278.000,6.800 278.186,6.800 278.413 C 6.800 278.931,4.509 281.200,3.986 281.200 C 3.774 281.200,3.600 281.393,3.600 281.629 C 3.600 282.182,2.582 283.200,2.029 283.200 C 1.793 283.200,1.600 283.650,1.600 284.200 C 1.600 284.822,1.827 285.200,2.200 285.200 C 2.530 285.200,2.800 285.394,2.800 285.631 C 2.800 286.191,5.009 288.400,5.569 288.400 C 5.806 288.400,6.000 288.590,6.000 288.822 C 6.000 289.363,13.448 296.800,13.991 296.800 C 14.216 296.800,14.400 296.994,14.400 297.231 C 14.400 297.791,16.609 300.000,17.169 300.000 C 17.406 300.000,17.600 300.184,17.600 300.409 C 17.600 300.952,25.037 308.400,25.578 308.400 C 25.810 308.400,26.000 308.594,26.000 308.831 C 26.000 309.391,28.209 311.600,28.769 311.600 C 29.006 311.600,29.200 311.784,29.200 312.009 C 29.200 312.552,36.637 320.000,37.178 320.000 C 37.410 320.000,37.600 320.194,37.600 320.431 C 37.600 320.991,39.809 323.200,40.369 323.200 C 40.606 323.200,40.800 323.394,40.800 323.631 C 40.800 324.191,43.009 326.400,43.569 326.400 C 43.806 326.400,44.000 326.592,44.000 326.826 C 44.000 327.381,48.219 331.600,48.774 331.600 C 49.008 331.600,49.200 331.794,49.200 332.031 C 49.200 332.591,51.409 334.800,51.969 334.800 C 52.206 334.800,52.400 334.994,52.400 335.231 C 52.400 335.791,54.609 338.000,55.169 338.000 C 55.406 338.000,55.600 338.182,55.600 338.405 C 55.600 338.628,57.308 340.518,59.395 342.605 C 61.482 344.692,63.372 346.400,63.595 346.400 C 63.818 346.400,64.000 346.594,64.000 346.831 C 64.000 347.068,64.526 347.788,65.169 348.431 C 65.812 349.074,66.532 349.600,66.769 349.600 C 67.006 349.600,67.200 349.782,67.200 350.005 C 67.200 350.534,74.666 358.000,75.195 358.000 C 75.418 358.000,75.600 358.194,75.600 358.431 C 75.600 358.991,77.809 361.200,78.369 361.200 C 78.606 361.200,78.800 361.394,78.800 361.631 C 78.800 362.191,81.009 364.400,81.569 364.400 C 81.806 364.400,82.000 364.576,82.000 364.791 C 82.000 365.326,86.243 369.600,86.774 369.600 C 87.008 369.600,87.200 369.794,87.200 370.031 C 87.200 370.591,89.409 372.800,89.969 372.800 C 90.206 372.800,90.400 372.994,90.400 373.231 C 90.400 373.791,92.609 376.000,93.169 376.000 C 93.406 376.000,93.600 376.192,93.600 376.426 C 93.600 376.981,97.819 381.200,98.374 381.200 C 98.608 381.200,98.800 381.394,98.800 381.631 C 98.800 382.191,101.009 384.400,101.569 384.400 C 101.806 384.400,102.000 384.594,102.000 384.831 C 102.000 385.391,104.209 387.600,104.769 387.600 C 105.006 387.600,105.200 387.792,105.200 388.026 C 105.200 388.557,109.474 392.800,110.009 392.800 C 110.224 392.800,110.400 392.994,110.400 393.231 C 110.400 393.791,112.609 396.000,113.169 396.000 C 113.406 396.000,113.600 396.194,113.600 396.431 C 113.600 396.991,115.809 399.200,116.369 399.200 C 116.606 399.200,116.800 399.392,116.800 399.626 C 116.800 400.157,121.074 404.400,121.609 404.400 C 121.824 404.400,122.000 404.594,122.000 404.831 C 122.000 405.391,124.209 407.600,124.769 407.600 C 125.006 407.600,125.200 407.794,125.200 408.031 C 125.200 408.591,127.409 410.800,127.969 410.800 C 128.206 410.800,128.400 410.994,128.400 411.231 C 128.400 411.791,130.609 414.000,131.169 414.000 C 131.406 414.000,131.600 414.193,131.600 414.429 C 131.600 414.982,132.618 416.000,133.171 416.000 C 133.407 416.000,133.600 416.174,133.600 416.386 C 133.600 416.909,135.869 419.200,136.387 419.200 C 136.614 419.200,136.800 419.394,136.800 419.631 C 136.800 420.191,139.009 422.400,139.569 422.400 C 139.806 422.400,140.000 422.594,140.000 422.831 C 140.000 423.391,142.209 425.600,142.769 425.600 C 143.006 425.600,143.200 425.776,143.200 425.991 C 143.200 426.501,147.499 430.800,148.009 430.800 C 148.224 430.800,148.400 430.994,148.400 431.231 C 148.400 431.791,150.609 434.000,151.169 434.000 C 151.406 434.000,151.600 434.194,151.600 434.431 C 151.600 434.991,153.809 437.200,154.369 437.200 C 154.606 437.200,154.800 437.376,154.800 437.591 C 154.800 438.101,159.099 442.400,159.609 442.400 C 159.824 442.400,160.000 442.594,160.000 442.831 C 160.000 443.391,162.209 445.600,162.769 445.600 C 163.006 445.600,163.200 445.794,163.200 446.031 C 163.200 446.591,165.409 448.800,165.969 448.800 C 166.206 448.800,166.400 448.986,166.400 449.213 C 166.400 449.731,168.691 452.000,169.214 452.000 C 169.426 452.000,169.600 452.193,169.600 452.429 C 169.600 452.982,170.618 454.000,171.171 454.000 C 171.407 454.000,171.600 454.174,171.600 454.386 C 171.600 454.909,173.869 457.200,174.387 457.200 C 174.614 457.200,174.800 457.394,174.800 457.631 C 174.800 458.191,177.009 460.400,177.569 460.400 C 177.806 460.400,178.000 460.586,178.000 460.813 C 178.000 461.331,180.291 463.600,180.814 463.600 C 181.026 463.600,181.200 463.793,181.200 464.029 C 181.200 464.582,182.218 465.600,182.771 465.600 C 183.007 465.600,183.200 465.774,183.200 465.986 C 183.200 466.509,185.469 468.800,185.987 468.800 C 186.214 468.800,186.400 468.994,186.400 469.231 C 186.400 469.791,188.609 472.000,189.169 472.000 C 189.406 472.000,189.600 472.186,189.600 472.413 C 189.600 472.931,191.891 475.200,192.414 475.200 C 192.626 475.200,192.800 475.393,192.800 475.629 C 192.800 476.182,193.818 477.200,194.371 477.200 C 194.607 477.200,194.800 477.470,194.800 477.800 C 194.800 478.130,195.070 478.400,195.400 478.400 C 195.730 478.400,196.000 478.593,196.000 478.829 C 196.000 479.382,197.018 480.400,197.571 480.400 C 197.807 480.400,198.000 480.578,198.000 480.795 C 198.000 481.013,198.310 481.553,198.689 481.995 C 199.529 482.977,202.000 483.129,202.000 482.200 C 202.000 481.870,202.270 481.600,202.600 481.600 C 202.930 481.600,203.200 481.407,203.200 481.171 C 203.200 480.618,204.218 479.600,204.771 479.600 C 205.007 479.600,205.200 479.330,205.200 479.000 C 205.200 478.670,205.470 478.400,205.800 478.400 C 206.130 478.400,206.400 478.207,206.400 477.971 C 206.400 477.418,207.418 476.400,207.971 476.400 C 208.207 476.400,208.400 476.130,208.400 475.800 C 208.400 475.470,208.670 475.200,209.000 475.200 C 209.330 475.200,209.600 475.007,209.600 474.771 C 209.600 474.218,210.618 473.200,211.171 473.200 C 211.407 473.200,211.600 472.930,211.600 472.600 C 211.600 472.270,211.793 472.000,212.029 472.000 C 212.582 472.000,213.600 470.982,213.600 470.429 C 213.600 470.193,213.870 470.000,214.200 470.000 C 214.530 470.000,214.800 469.807,214.800 469.571 C 214.800 469.018,215.818 468.000,216.371 468.000 C 216.607 468.000,216.800 467.730,216.800 467.400 C 216.800 467.070,217.070 466.800,217.400 466.800 C 217.730 466.800,218.000 466.607,218.000 466.371 C 218.000 465.818,219.018 464.800,219.571 464.800 C 219.807 464.800,220.000 464.530,220.000 464.200 C 220.000 463.870,220.270 463.600,220.600 463.600 C 220.930 463.600,221.200 463.407,221.200 463.171 C 221.200 462.618,222.218 461.600,222.771 461.600 C 223.007 461.600,223.200 461.330,223.200 461.000 C 223.200 460.670,223.393 460.400,223.629 460.400 C 224.182 460.400,225.200 459.382,225.200 458.829 C 225.200 458.593,225.470 458.400,225.800 458.400 C 226.130 458.400,226.400 458.207,226.400 457.971 C 226.400 457.418,227.418 456.400,227.971 456.400 C 228.207 456.400,228.400 456.130,228.400 455.800 C 228.400 455.470,228.670 455.200,229.000 455.200 C 229.330 455.200,229.600 455.007,229.600 454.771 C 229.600 454.218,230.618 453.200,231.171 453.200 C 231.407 453.200,231.600 452.930,231.600 452.600 C 231.600 452.270,231.870 452.000,232.200 452.000 C 232.530 452.000,232.800 451.807,232.800 451.571 C 232.800 451.018,233.818 450.000,234.371 450.000 C 234.607 450.000,234.800 449.730,234.800 449.400 C 234.800 449.070,234.993 448.800,235.229 448.800 C 235.782 448.800,236.800 447.782,236.800 447.229 C 236.800 446.993,237.070 446.800,237.400 446.800 C 237.730 446.800,238.000 446.530,238.000 446.200 C 238.000 445.870,238.193 445.600,238.429 445.600 C 238.982 445.600,240.000 444.582,240.000 444.029 C 240.000 443.793,240.270 443.600,240.600 443.600 C 240.930 443.600,241.200 443.407,241.200 443.171 C 241.200 442.618,242.218 441.600,242.771 441.600 C 243.007 441.600,243.200 441.330,243.200 441.000 C 243.200 440.670,243.470 440.400,243.800 440.400 C 244.130 440.400,244.400 440.207,244.400 439.971 C 244.400 439.418,245.418 438.400,245.971 438.400 C 246.207 438.400,246.400 438.130,246.400 437.800 C 246.400 437.470,246.593 437.200,246.829 437.200 C 247.382 437.200,248.400 436.182,248.400 435.629 C 248.400 435.393,248.670 435.200,249.000 435.200 C 249.330 435.200,249.600 434.960,249.600 434.668 C 249.600 434.375,250.050 433.894,250.600 433.600 C 251.150 433.306,251.600 432.825,251.600 432.532 C 251.600 432.240,251.870 432.000,252.200 432.000 C 252.530 432.000,252.800 431.760,252.800 431.468 C 252.800 431.175,253.250 430.694,253.800 430.400 C 254.350 430.106,254.800 429.625,254.800 429.332 C 254.800 429.040,255.070 428.800,255.400 428.800 C 255.730 428.800,256.000 428.607,256.000 428.371 C 256.000 427.818,257.018 426.800,257.571 426.800 C 257.807 426.800,258.000 426.530,258.000 426.200 C 258.000 425.870,258.193 425.600,258.429 425.600 C 258.982 425.600,260.000 424.582,260.000 424.029 C 260.000 423.793,260.270 423.600,260.600 423.600 C 260.930 423.600,261.200 423.360,261.200 423.068 C 261.200 422.775,261.650 422.294,262.200 422.000 C 262.750 421.706,263.200 421.225,263.200 420.932 C 263.200 420.640,263.470 420.400,263.800 420.400 C 264.130 420.400,264.400 420.160,264.400 419.868 C 264.400 419.575,264.850 419.094,265.400 418.800 C 265.950 418.506,266.400 418.025,266.400 417.732 C 266.400 417.440,266.670 417.200,267.000 417.200 C 267.330 417.200,267.600 417.007,267.600 416.771 C 267.600 416.218,268.618 415.200,269.171 415.200 C 269.407 415.200,269.600 414.930,269.600 414.600 C 269.600 414.270,269.793 414.000,270.029 414.000 C 270.582 414.000,271.600 412.982,271.600 412.429 C 271.600 412.193,271.870 412.000,272.200 412.000 C 272.530 412.000,272.800 411.730,272.800 411.400 C 272.800 411.070,272.993 410.800,273.229 410.800 C 273.782 410.800,274.800 409.782,274.800 409.229 C 274.800 408.993,275.070 408.800,275.400 408.800 C 275.730 408.800,276.000 408.530,276.000 408.200 C 276.000 407.870,276.193 407.600,276.429 407.600 C 276.982 407.600,278.000 406.582,278.000 406.029 C 278.000 405.793,278.270 405.600,278.600 405.600 C 278.930 405.600,279.200 405.360,279.200 405.068 C 279.200 404.775,279.650 404.294,280.200 404.000 C 280.750 403.706,281.200 403.225,281.200 402.932 C 281.200 402.640,281.440 402.400,281.732 402.400 C 282.025 402.400,282.506 401.950,282.800 401.400 C 283.094 400.850,283.575 400.400,283.868 400.400 C 284.160 400.400,284.400 400.130,284.400 399.800 C 284.400 399.470,284.593 399.200,284.829 399.200 C 285.382 399.200,286.400 398.182,286.400 397.629 C 286.400 397.393,286.670 397.200,287.000 397.200 C 287.330 397.200,287.600 396.930,287.600 396.600 C 287.600 396.270,287.793 396.000,288.029 396.000 C 288.582 396.000,289.600 394.982,289.600 394.429 C 289.600 394.193,289.870 394.000,290.200 394.000 C 290.530 394.000,290.800 393.760,290.800 393.468 C 290.800 393.175,291.250 392.694,291.800 392.400 C 292.350 392.106,292.800 391.625,292.800 391.332 C 292.800 391.040,292.993 390.800,293.229 390.800 C 293.782 390.800,294.800 389.782,294.800 389.229 C 294.800 388.993,295.070 388.800,295.400 388.800 C 295.730 388.800,296.000 388.530,296.000 388.200 C 296.000 387.870,296.193 387.600,296.429 387.600 C 296.982 387.600,298.000 386.582,298.000 386.029 C 298.000 385.793,298.270 385.600,298.600 385.600 C 298.930 385.600,299.200 385.330,299.200 385.000 C 299.200 384.670,299.393 384.400,299.629 384.400 C 300.182 384.400,301.200 383.382,301.200 382.829 C 301.200 382.593,301.470 382.400,301.800 382.400 C 302.130 382.400,302.400 382.130,302.400 381.800 C 302.400 381.470,302.593 381.200,302.829 381.200 C 303.382 381.200,304.400 380.182,304.400 379.629 C 304.400 379.393,304.593 379.200,304.829 379.200 C 305.382 379.200,306.400 378.182,306.400 377.629 C 306.400 377.393,306.670 377.200,307.000 377.200 C 307.330 377.200,307.600 376.930,307.600 376.600 C 307.600 376.270,307.793 376.000,308.029 376.000 C 308.582 376.000,309.600 374.982,309.600 374.429 C 309.600 374.193,309.870 374.000,310.200 374.000 C 310.530 374.000,310.800 373.730,310.800 373.400 C 310.800 373.070,310.993 372.800,311.229 372.800 C 311.782 372.800,312.800 371.782,312.800 371.229 C 312.800 370.993,313.070 370.800,313.400 370.800 C 313.730 370.800,314.000 370.530,314.000 370.200 C 314.000 369.870,314.193 369.600,314.429 369.600 C 314.982 369.600,316.000 368.582,316.000 368.029 C 316.000 367.793,316.240 367.600,316.532 367.600 C 316.825 367.600,317.306 367.150,317.600 366.600 C 317.894 366.050,318.375 365.600,318.668 365.600 C 318.960 365.600,319.200 365.330,319.200 365.000 C 319.200 364.670,319.440 364.400,319.732 364.400 C 320.025 364.400,320.506 363.950,320.800 363.400 C 321.094 362.850,321.575 362.400,321.868 362.400 C 322.160 362.400,322.400 362.130,322.400 361.800 C 322.400 361.470,322.593 361.200,322.829 361.200 C 323.382 361.200,324.400 360.182,324.400 359.629 C 324.400 359.393,324.670 359.200,325.000 359.200 C 325.330 359.200,325.600 358.960,325.600 358.668 C 325.600 358.375,326.050 357.894,326.600 357.600 C 327.150 357.306,327.600 356.825,327.600 356.532 C 327.600 356.240,327.766 356.000,327.969 356.000 C 328.172 356.000,328.892 355.446,329.569 354.769 C 330.246 354.092,330.800 353.372,330.800 353.169 C 330.800 352.966,331.040 352.800,331.332 352.800 C 331.625 352.800,332.106 352.350,332.400 351.800 C 332.694 351.250,333.175 350.800,333.468 350.800 C 333.760 350.800,334.000 350.530,334.000 350.200 C 334.000 349.870,334.193 349.600,334.429 349.600 C 334.982 349.600,336.000 348.582,336.000 348.029 C 336.000 347.793,336.270 347.600,336.600 347.600 C 336.930 347.600,337.200 347.330,337.200 347.000 C 337.200 346.670,337.393 346.400,337.629 346.400 C 338.182 346.400,339.200 345.382,339.200 344.829 C 339.200 344.593,339.374 344.400,339.586 344.400 C 340.109 344.400,342.400 342.131,342.400 341.613 C 342.400 341.386,342.593 341.200,342.829 341.200 C 343.382 341.200,344.400 340.182,344.400 339.629 C 344.400 339.393,344.670 339.200,345.000 339.200 C 345.330 339.200,345.600 338.930,345.600 338.600 C 345.600 338.270,345.793 338.000,346.029 338.000 C 346.582 338.000,347.600 336.982,347.600 336.429 C 347.600 336.193,347.870 336.000,348.200 336.000 C 348.530 336.000,348.800 335.730,348.800 335.400 C 348.800 335.070,348.993 334.800,349.229 334.800 C 349.782 334.800,350.800 333.782,350.800 333.229 C 350.800 332.993,351.070 332.800,351.400 332.800 C 351.730 332.800,352.000 332.530,352.000 332.200 C 352.000 331.870,352.193 331.600,352.429 331.600 C 352.982 331.600,354.000 330.582,354.000 330.029 C 354.000 329.793,354.193 329.600,354.429 329.600 C 354.982 329.600,356.000 328.582,356.000 328.029 C 356.000 327.793,356.270 327.600,356.600 327.600 C 356.930 327.600,357.200 327.330,357.200 327.000 C 357.200 326.670,357.393 326.400,357.629 326.400 C 358.182 326.400,359.200 325.382,359.200 324.829 C 359.200 324.593,359.470 324.400,359.800 324.400 C 360.130 324.400,360.400 324.130,360.400 323.800 C 360.400 323.470,360.593 323.200,360.829 323.200 C 361.382 323.200,362.400 322.182,362.400 321.629 C 362.400 321.393,362.670 321.200,363.000 321.200 C 363.330 321.200,363.600 320.930,363.600 320.600 C 363.600 320.270,363.793 320.000,364.029 320.000 C 364.582 320.000,365.600 318.982,365.600 318.429 C 365.600 318.193,365.786 318.000,366.013 318.000 C 366.531 318.000,368.800 315.709,368.800 315.186 C 368.800 314.974,368.993 314.800,369.229 314.800 C 369.782 314.800,370.800 313.782,370.800 313.229 C 370.800 312.993,371.070 312.800,371.400 312.800 C 371.730 312.800,372.000 312.530,372.000 312.200 C 372.000 311.870,372.193 311.600,372.429 311.600 C 372.982 311.600,374.000 310.582,374.000 310.029 C 374.000 309.793,374.270 309.600,374.600 309.600 C 374.930 309.600,375.200 309.330,375.200 309.000 C 375.200 308.670,375.393 308.400,375.629 308.400 C 376.182 308.400,377.200 307.382,377.200 306.829 C 377.200 306.593,377.386 306.400,377.613 306.400 C 378.131 306.400,380.400 304.109,380.400 303.586 C 380.400 303.374,380.593 303.200,380.829 303.200 C 381.382 303.200,382.400 302.182,382.400 301.629 C 382.400 301.393,382.670 301.200,383.000 301.200 C 383.330 301.200,383.600 300.930,383.600 300.600 C 383.600 300.270,383.793 300.000,384.029 300.000 C 384.582 300.000,385.600 298.982,385.600 298.429 C 385.600 298.193,385.870 298.000,386.200 298.000 C 386.530 298.000,386.800 297.730,386.800 297.400 C 386.800 297.070,386.993 296.800,387.229 296.800 C 387.464 296.800,387.914 296.543,388.229 296.229 C 388.543 295.914,388.800 295.464,388.800 295.229 C 388.800 294.993,388.974 294.800,389.186 294.800 C 389.709 294.800,392.000 292.531,392.000 292.013 C 392.000 291.786,392.193 291.600,392.429 291.600 C 392.664 291.600,393.114 291.343,393.429 291.029 C 393.743 290.714,394.000 290.264,394.000 290.029 C 394.000 289.793,394.270 289.600,394.600 289.600 C 394.930 289.600,395.200 289.330,395.200 289.000 C 395.200 288.670,395.393 288.400,395.629 288.400 C 395.864 288.400,396.314 288.143,396.629 287.829 C 396.943 287.514,397.200 287.064,397.200 286.829 C 397.200 286.593,397.470 286.400,397.800 286.400 C 398.130 286.400,398.400 286.130,398.400 285.800 C 398.400 285.470,398.580 285.200,398.800 285.200 C 399.584 285.200,399.183 283.645,398.200 282.871 C 397.650 282.439,397.200 281.916,397.200 281.710 C 397.200 281.504,396.750 281.094,396.200 280.800 C 395.650 280.506,395.200 280.025,395.200 279.732 C 395.200 279.440,395.026 279.200,394.814 279.200 C 394.291 279.200,392.000 276.931,392.000 276.413 C 392.000 276.186,391.760 276.000,391.468 276.000 C 391.175 276.000,390.694 275.550,390.400 275.000 C 390.106 274.450,389.625 274.000,389.332 274.000 C 389.040 274.000,388.800 273.730,388.800 273.400 C 388.800 273.070,388.560 272.800,388.268 272.800 C 387.975 272.800,387.494 272.350,387.200 271.800 C 386.906 271.250,386.425 270.800,386.132 270.800 C 385.840 270.800,385.600 270.634,385.600 270.431 C 385.600 270.228,385.046 269.508,384.369 268.831 C 383.692 268.154,382.972 267.600,382.769 267.600 C 382.566 267.600,382.400 267.360,382.400 267.068 C 382.400 266.775,381.950 266.294,381.400 266.000 C 380.850 265.706,380.400 265.225,380.400 264.932 C 380.400 264.640,380.130 264.400,379.800 264.400 C 379.470 264.400,379.200 264.207,379.200 263.971 C 379.200 263.736,378.943 263.286,378.629 262.971 C 378.314 262.657,377.864 262.400,377.629 262.400 C 377.393 262.400,377.200 262.130,377.200 261.800 C 377.200 261.470,376.960 261.200,376.668 261.200 C 376.375 261.200,375.894 260.750,375.600 260.200 C 375.306 259.650,374.825 259.200,374.532 259.200 C 374.240 259.200,374.000 259.034,374.000 258.831 C 374.000 258.628,373.446 257.908,372.769 257.231 C 372.092 256.554,371.372 256.000,371.169 256.000 C 370.966 256.000,370.800 255.834,370.800 255.631 C 370.800 255.428,370.246 254.708,369.569 254.031 C 368.892 253.354,368.172 252.800,367.969 252.800 C 367.766 252.800,367.600 252.607,367.600 252.371 C 367.600 251.922,366.621 250.800,366.229 250.800 C 366.103 250.800,365.640 250.440,365.200 250.000 C 364.760 249.560,364.400 249.097,364.400 248.971 C 364.400 248.692,363.334 247.600,363.061 247.600 C 362.846 247.600,359.392 244.146,358.329 242.867 C 357.882 242.329,357.372 242.135,356.799 242.284 C 356.076 242.473,343.552 230.087,278.407 164.755 L 200.876 87.000 193.985 93.800 M190.240 202.187 C 190.706 202.824,190.795 204.546,190.708 211.187 L 190.600 219.400 170.400 219.600 L 150.200 219.800 150.097 246.900 L 149.994 274.000 165.164 274.000 C 173.508 274.000,180.619 274.109,180.967 274.243 C 182.040 274.654,181.907 291.408,180.826 291.986 C 180.332 292.250,174.619 292.400,165.026 292.400 L 150.000 292.400 150.000 330.626 C 150.000 356.212,149.863 369.108,149.586 369.626 C 148.942 370.830,125.858 370.830,125.214 369.626 C 124.291 367.901,124.678 202.922,125.607 201.993 C 126.857 200.743,189.321 200.931,190.240 202.187 M249.800 201.627 C 251.560 201.830,254.530 202.159,256.400 202.358 C 262.661 203.023,271.794 206.195,276.200 209.235 C 279.154 211.273,285.200 217.553,285.200 218.584 C 285.200 218.732,285.615 219.426,286.123 220.127 C 288.559 223.489,290.710 230.009,292.377 239.081 C 293.285 244.023,293.686 323.065,292.826 327.480 C 292.620 328.536,292.243 330.660,291.987 332.200 C 290.952 338.435,288.697 345.916,286.861 349.200 C 286.308 350.190,285.657 351.360,285.413 351.800 C 283.214 355.778,279.713 359.807,276.400 362.172 C 275.630 362.722,274.816 363.313,274.592 363.486 C 274.116 363.852,269.650 366.059,267.564 366.958 C 265.544 367.829,261.823 368.823,259.000 369.245 C 257.680 369.443,256.078 369.783,255.440 370.002 C 253.267 370.748,206.133 370.524,205.843 369.767 C 205.709 369.419,205.600 331.744,205.600 286.044 C 205.600 199.336,205.548 202.068,207.200 201.478 C 208.241 201.106,246.448 201.239,249.800 201.627 M230.846 221.115 C 230.523 221.717,230.400 239.960,230.400 286.987 L 230.400 352.026 240.700 351.892 C 253.823 351.721,256.675 350.957,261.200 346.396 C 267.807 339.737,268.138 336.851,268.173 285.600 C 268.212 228.894,267.629 226.246,254.126 221.774 C 249.566 220.263,231.574 219.754,230.846 221.115 " stroke="none" fill="#03b3e4" fill-rule="evenodd"></path><path id="path3" d="M125.607 201.993 C 124.678 202.922,124.291 367.901,125.214 369.626 C 125.858 370.830,148.942 370.830,149.586 369.626 C 149.863 369.108,150.000 356.212,150.000 330.626 L 150.000 292.400 165.026 292.400 C 174.619 292.400,180.332 292.250,180.826 291.986 C 181.907 291.408,182.040 274.654,180.967 274.243 C 180.619 274.109,173.508 274.000,165.164 274.000 L 149.994 274.000 150.097 246.900 L 150.200 219.800 170.400 219.600 L 190.600 219.400 190.708 211.187 C 190.795 204.546,190.706 202.824,190.240 202.187 C 189.321 200.931,126.857 200.743,125.607 201.993 M207.200 201.478 C 205.548 202.068,205.600 199.336,205.600 286.044 C 205.600 331.744,205.709 369.419,205.843 369.767 C 206.133 370.524,253.267 370.748,255.440 370.002 C 256.078 369.783,257.680 369.443,259.000 369.245 C 261.823 368.823,265.544 367.829,267.564 366.958 C 269.650 366.059,274.116 363.852,274.592 363.486 C 274.816 363.313,275.630 362.722,276.400 362.172 C 279.713 359.807,283.214 355.778,285.413 351.800 C 285.657 351.360,286.308 350.190,286.861 349.200 C 288.697 345.916,290.952 338.435,291.987 332.200 C 292.243 330.660,292.620 328.536,292.826 327.480 C 293.686 323.065,293.285 244.023,292.377 239.081 C 290.710 230.009,288.559 223.489,286.123 220.127 C 285.615 219.426,285.200 218.732,285.200 218.584 C 285.200 217.553,279.154 211.273,276.200 209.235 C 271.794 206.195,262.661 203.023,256.400 202.358 C 254.530 202.159,251.560 201.830,249.800 201.627 C 246.448 201.239,208.241 201.106,207.200 201.478 M189.380 202.637 C 189.927 203.184,190.001 204.382,189.908 211.137 L 189.800 219.000 169.836 219.104 C 155.906 219.176,149.711 219.342,149.336 219.653 C 148.336 220.483,148.567 273.847,149.574 274.386 C 150.067 274.650,155.756 274.800,165.294 274.800 C 176.385 274.800,180.364 274.924,180.720 275.280 C 181.529 276.089,181.387 290.643,180.567 290.957 C 180.219 291.091,173.258 291.200,165.099 291.200 C 151.855 291.200,150.184 291.271,149.531 291.862 C 148.833 292.494,148.800 294.221,148.800 330.629 C 148.800 351.587,148.691 369.019,148.557 369.367 C 148.344 369.923,146.966 370.000,137.204 370.000 L 126.093 370.000 125.852 369.100 C 125.218 366.732,125.587 203.270,126.229 202.629 C 127.194 201.663,188.414 201.671,189.380 202.637 M252.640 202.815 C 256.703 203.263,260.516 203.817,261.114 204.045 C 261.711 204.273,262.920 204.608,263.800 204.791 C 265.448 205.133,267.261 205.734,269.460 206.666 C 270.154 206.960,271.009 207.200,271.360 207.200 C 271.712 207.200,272.000 207.380,272.000 207.600 C 272.000 207.820,272.242 208.000,272.537 208.000 C 273.913 208.000,283.600 216.177,283.600 217.338 C 283.600 217.460,284.117 218.334,284.748 219.280 C 286.263 221.550,288.796 226.884,288.814 227.842 C 288.822 228.259,289.086 229.050,289.400 229.600 C 289.714 230.150,289.978 231.107,289.986 231.726 C 289.994 232.346,290.212 233.246,290.471 233.726 C 290.920 234.559,291.180 236.334,291.977 244.000 C 292.432 248.378,292.430 319.786,291.975 324.800 C 291.396 331.176,290.926 334.546,290.452 335.726 C 290.204 336.345,289.994 337.425,289.986 338.126 C 289.978 338.827,289.714 339.850,289.400 340.400 C 289.086 340.950,288.822 341.807,288.814 342.305 C 288.806 342.803,288.634 343.523,288.431 343.905 C 288.228 344.287,287.235 346.310,286.225 348.400 C 283.698 353.630,280.388 358.330,278.239 359.737 C 277.729 360.072,277.062 360.588,276.756 360.886 C 275.119 362.477,268.828 366.000,267.623 366.000 C 267.258 366.000,266.789 366.156,266.580 366.347 C 266.026 366.853,260.115 368.265,254.660 369.193 C 247.494 370.413,207.464 370.441,206.814 369.226 C 205.897 367.513,206.277 203.723,207.200 202.800 C 208.422 201.578,241.532 201.589,252.640 202.815 M230.838 219.900 L 229.987 220.600 230.093 286.600 L 230.200 352.600 240.600 352.600 C 251.818 352.600,252.596 352.493,257.091 350.342 C 261.151 348.398,265.035 343.871,266.479 339.400 C 268.794 332.231,268.942 329.053,268.973 285.800 C 269.002 244.511,268.619 235.553,266.736 233.420 C 266.551 233.211,266.400 232.794,266.400 232.494 C 266.400 229.582,261.962 224.408,257.731 222.388 C 256.229 221.670,254.687 220.930,254.305 220.742 C 253.923 220.554,252.843 220.400,251.905 220.400 C 250.967 220.400,248.940 220.133,247.400 219.807 C 243.132 218.903,231.973 218.966,230.838 219.900 M254.126 221.774 C 267.629 226.246,268.212 228.894,268.173 285.600 C 268.138 336.851,267.807 339.737,261.200 346.396 C 256.675 350.957,253.823 351.721,240.700 351.892 L 230.400 352.026 230.400 286.987 C 230.400 239.960,230.523 221.717,230.846 221.115 C 231.574 219.754,249.566 220.263,254.126 221.774 " stroke="none" fill="#8fddf3" fill-rule="evenodd"></path><path id="path4" d="" stroke="none" fill="#00ffff" fill-rule="evenodd"></path></g></svg>